<svg width="107" height="86" viewBox="0 0 107 86" fill="none" xmlns="http://www.w3.org/2000/svg">
<path d="M91.572 32.941C80.853 32.941 68.788 42.335 58.468 58.713L58.247 59.066L57.859 58.911C57.183 58.64 56.527 58.349 55.88 58.052L55.28 57.775L55.709 57.274C64.508 46.957 69.761 34.29 69.761 23.391C69.761 5.46899 59.271 0.733994 53.724 0.733994C42.944 0.733994 36.761 8.99199 36.761 23.391C36.761 35.468 40.161 43.201 46.869 46.384C47.037 46.169 47.205 45.952 47.371 45.735L53.227 36.202C52.471 36.236 51.697 35.931 50.925 35.133C49.004 33.146 47.113 28.205 47.276 23.374C47.528 15.797 49.878 11.451 53.723 11.451C57.181 11.451 59.789 16.584 59.789 23.39C59.789 30.897 54.03 42.662 46.099 51.365L45.783 51.713L45.417 51.42C43.344 49.758 41.389 48.041 39.498 46.379C32.184 39.953 25.275 33.881 13.79 33.404C6.341 33.087 0 39.828 0 47.833C0 56.093 12.301 71.89 31.586 71.89C36.585 71.89 41.852 69.757 46.82 65.725L47.085 65.509L47.382 65.679C49.049 66.626 50.79 67.49 52.555 68.24L53.039 68.444L52.81 68.918C50.008 74.694 47.867 80.449 46.601 85.603H58.277C59.283 81.146 60.908 76.375 62.988 71.778L63.148 71.423L63.533 71.493C67.23 72.169 71.208 72.511 75.353 72.511C94.572 72.511 106.334 56.734 106.334 48.142C106.336 44.195 103.624 32.941 91.572 32.941ZM36.974 59.009C34.073 60.689 31.311 61.54 28.764 61.54C19.518 61.54 10.864 52.839 10.864 48.886C10.864 46.579 12.43 44.191 15.052 44.191C21.802 44.191 26.795 48.807 32.576 54.151C34.001 55.468 35.475 56.832 37.051 58.201L37.58 58.66L36.974 59.009ZM75.035 62.009C73.083 62.009 71.154 61.907 69.305 61.706L68.491 61.618L68.942 60.934C76.057 50.116 84.132 43.911 91.1 43.911C94.141 43.911 95.733 46.194 95.733 48.45C95.732 54.025 83.546 62.009 75.035 62.009Z" fill="white"/>
</svg>
